<?xml version="1.0" standalone="no"?>
<!DOCTYPE svg PUBLIC "-//W3C//DTD SVG 20010904//EN"
 "http://www.w3.org/TR/2001/REC-SVG-20010904/DTD/svg10.dtd">
<svg version="1.0" xmlns="http://www.w3.org/2000/svg"
 width="512.000000pt" height="512.000000pt" viewBox="0 0 512.000000 512.000000"
 preserveAspectRatio="xMidYMid meet">

<g transform="translate(0.000000,512.000000) scale(0.100000,-0.100000)"
fill="#ff0000" stroke="none">
<path d="M4175 5113 c-281 -39 -530 -245 -619 -513 -67 -203 -46 -440 55 -617
l30 -53 -172 -202 c-95 -112 -226 -267 -292 -344 l-120 -142 -56 25 c-31 14
-87 36 -125 49 -287 99 -624 60 -879 -100 l-84 -53 -159 138 c-87 76 -158 144
-157 151 1 7 8 45 17 83 69 309 -113 623 -417 721 -117 37 -257 37 -375 -1
-301 -96 -483 -409 -417 -719 24 -113 78 -209 170 -302 88 -90 177 -140 295
-170 97 -24 253 -15 345 20 39 15 77 30 86 33 11 3 69 -41 173 -132 86 -75
156 -138 156 -139 0 -2 -18 -42 -41 -90 -132 -282 -129 -600 9 -900 l37 -79
-60 -55 c-33 -30 -88 -79 -122 -109 l-63 -55 -92 46 c-119 58 -237 86 -367 87
-121 0 -197 -13 -308 -53 -353 -128 -581 -500 -541 -883 46 -439 441 -777 878
-752 424 25 754 335 803 755 16 140 -13 325 -68 431 -8 17 -15 37 -15 45 0 13
225 226 240 226 4 0 44 -22 89 -49 312 -188 704 -198 1027 -27 l82 44 101
-102 102 -102 -27 -80 c-111 -331 78 -688 421 -790 42 -13 94 -18 170 -18 94
0 121 3 188 27 219 77 375 255 417 478 44 231 -63 485 -261 620 -159 108 -356
136 -537 78 l-71 -23 -99 104 -99 105 53 100 c95 180 131 348 121 550 -10 185
-65 354 -166 512 l-53 83 283 332 c155 183 286 337 290 342 6 6 35 1 76 -12
209 -68 396 -55 589 38 207 100 357 289 410 518 22 95 20 258 -5 353 -76 295
-323 520 -621 568 -63 11 -165 12 -225 4z m247 -450 c215 -95 265 -384 97
-552 -69 -69 -136 -96 -239 -96 -71 0 -94 4 -142 27 -68 31 -133 95 -168 164
-21 42 -25 62 -25 144 0 82 4 103 26 150 81 170 277 241 451 163z m-3295 -839
c80 -65 101 -148 60 -237 -82 -179 -339 -142 -372 54 -9 50 17 127 53 161 50
47 82 59 154 55 57 -2 72 -7 105 -33z m1630 -912 c159 -58 285 -171 354 -316
91 -190 91 -380 -1 -562 -77 -152 -211 -268 -373 -320 -117 -38 -267 -38 -384
0 -194 63 -345 214 -410 410 -34 103 -38 265 -9 361 66 218 238 386 458 445
109 30 255 23 365 -18z m-1696 -1666 c77 -27 96 -39 161 -102 91 -88 139 -231
119 -355 -47 -289 -347 -447 -608 -319 -154 76 -240 228 -231 405 15 278 295
464 559 371z m2868 -106 c142 -40 194 -207 99 -316 -76 -86 -190 -95 -274 -22
-89 78 -95 195 -16 280 54 57 122 78 191 58z"/>
</g>
</svg>
